# OBJ file for Ben Watson's Ray Tracing Project
# Complaints to Dave Crist  :)
#  davecrist@mac.com


#Obj Edited for the Qbert Game - CSC 561 Program 4
mtllib cube.mtl

#Vertices

v -1 -1 -1
v -1 1 -1
v 1 1 -1
v 1 -1 -1
v -1 -1 1
v -1 1 1
v 1 1 1
v 1 -1 1

#Normals (Face normals one for each face as no smooth shading required)
vn 0 1 0
vn 0 -1 0
vn 0 0 1
vn 0 0 -1
vn -1 0 0
vn 1 0 0

g top
usemtl top

f 6//1 7//1 2//1
f 7//1 3//1 2//1

g bottom
usemtl bottom

f 4//2 8//2 1//2
f 8//2 5//2 1//2

g front
usemtl front

f 7//3 6//3 8//3
f 6//3 5//3 8//3

g back
usemtl back

f 2//4 3//4 1//4
f 3//4 4//4 1//4

g left
usemtl left

f 6//5 2//5 5//5
f 2//5 1//5 5//5

g right
usemtl right

f 3//6 7//6 4//6
f 7//6 8//6 4//6